<?xml version="1.0" standalone="no"?>
<!DOCTYPE svg PUBLIC "-//W3C//DTD SVG 20010904//EN"
 "http://www.w3.org/TR/2001/REC-SVG-20010904/DTD/svg10.dtd">
<svg version="1.0" xmlns="http://www.w3.org/2000/svg"
 width="537.000000pt" height="341.000000pt" viewBox="0 0 537.000000 341.000000"
 preserveAspectRatio="xMidYMid meet">

<g transform="translate(0.000000,341.000000) scale(0.100000,-0.100000)"
fill="#000000" stroke="none">
<path d="M0 2900 c0 -333 3 -510 10 -510 10 0 13 22 10 79 -1 22 2 31 9 27 6
-4 11 0 11 11 0 10 9 29 20 43 l20 25 0 -22 c0 -13 5 -23 10 -23 13 0 13 77 0
85 -16 10 -12 23 10 30 26 8 25 23 -3 35 -21 8 -21 9 5 9 14 1 33 -2 42 -5 20
-8 21 -34 1 -34 -8 0 -15 -4 -15 -10 0 -5 6 -10 14 -10 8 0 17 -6 19 -12 3 -7
7 34 8 92 3 133 16 -311 18 -635 l1 -240 45 79 c24 43 55 92 68 110 13 17 27
47 30 66 4 19 17 46 30 60 54 61 52 45 57 344 4 185 8 270 14 248 l9 -32 23
27 c21 25 23 25 17 5 -4 -16 -1 -22 12 -22 11 0 15 5 11 15 -4 11 2 15 24 15
17 0 30 -5 30 -11 0 -8 21 -10 70 -5 44 5 70 4 70 -3 0 -5 -6 -11 -12 -14 -7
-2 11 -5 40 -5 30 -1 59 -6 66 -11 7 -6 16 -7 20 -3 4 4 13 -1 20 -10 7 -9 24
-19 39 -22 15 -2 36 -11 47 -19 12 -8 30 -12 41 -10 15 4 22 0 26 -15 3 -12
11 -18 18 -16 8 4 15 -3 17 -17 2 -12 9 -24 16 -27 9 -3 12 18 14 80 1 46 5
-70 10 -257 4 -187 5 -483 2 -657 l-6 -317 -27 -5 c-228 -45 -612 -106 -649
-104 l-47 3 0 200 c0 110 -2 211 -3 225 -3 24 -4 24 -22 -10 -28 -52 -80 -186
-82 -215 -1 -14 -5 -25 -8 -25 -16 0 -30 -206 -36 -517 -5 -275 -9 -343 -20
-347 -11 -4 -14 7 -15 47 -2 48 -2 50 -9 17 -6 -30 -8 -32 -10 -10 -2 14 -6
-6 -10 -45 -6 -63 -6 -59 -6 40 0 78 2 98 7 70 10 -52 1 336 -9 395 -16 100
-27 9 -30 -267 l-4 -283 -39 -11 -39 -12 0 -279 0 -278 55 0 55 0 2 123 c0 67
0 151 -1 185 -2 46 1 62 9 57 6 -4 10 -21 9 -39 -1 -17 -1 -97 0 -178 l1 -148
158 0 159 0 11 25 c16 34 15 40 -4 59 -14 15 -14 16 3 16 10 0 35 11 55 25 37
25 53 31 45 18 -3 -5 14 -8 36 -9 23 0 68 -4 100 -8 45 -6 57 -11 53 -22 -4
-12 -2 -12 15 -4 15 8 39 7 94 -5 69 -16 72 -18 57 -34 -9 -10 -20 -16 -23
-14 -4 1 -9 -3 -12 -11 -4 -10 0 -12 15 -8 11 2 22 11 25 18 2 7 12 10 20 7
12 -5 14 -3 8 7 -7 11 2 12 41 7 90 -12 154 -30 147 -40 -4 -7 1 -8 12 -3 10
3 59 0 109 -8 146 -24 640 -10 662 19 5 7 17 13 25 13 7 -1 23 0 34 1 17 1 18
3 5 11 -12 8 -11 10 8 10 12 0 22 5 22 12 0 8 6 6 17 -4 14 -14 14 -20 3 -33
-7 -8 -9 -19 -5 -23 4 -4 15 4 24 18 30 46 50 60 86 60 28 0 33 -3 28 -16 -5
-14 -3 -15 16 -4 13 6 25 9 29 6 3 -3 1 -6 -5 -6 -5 0 -10 -6 -10 -14 0 -14
32 -11 55 7 9 7 11 5 6 -9 -6 -16 -5 -17 7 -7 7 7 22 13 33 13 16 0 18 -2 7
-9 -7 -5 -9 -11 -4 -14 5 -3 15 -2 23 4 27 16 48 9 62 -21 8 -18 20 -30 32
-30 14 0 16 3 7 14 -9 11 -6 12 14 8 15 -2 22 -9 18 -16 -3 -6 3 -3 14 6 24
22 60 22 133 3 30 -8 73 -14 95 -13 30 1 33 2 13 5 -16 2 -28 9 -28 15 0 5 -7
7 -17 4 -20 -8 -155 23 -165 38 -5 7 -8 7 -8 -2 0 -9 -5 -10 -17 -4 -17 9 -52
15 -148 29 -48 6 -59 13 -22 13 29 0 35 18 15 38 -14 14 -32 16 -24 4 3 -5 -5
-8 -17 -7 -12 2 -21 8 -19 14 3 15 -42 32 -78 29 -18 -1 -26 -7 -23 -15 3 -9
-3 -13 -20 -13 -28 0 -45 37 -25 55 8 7 9 5 5 -7 -3 -10 -2 -20 3 -23 6 -4 10
3 10 15 0 11 7 33 16 48 10 17 11 21 2 10 -9 -11 -19 -14 -28 -8 -9 6 -17 5
-21 -2 -6 -9 -11 -9 -21 0 -8 6 -23 9 -34 6 -23 -6 -51 -44 -32 -44 6 0 9 -3
5 -6 -3 -3 -11 -3 -17 1 -8 5 -8 11 1 21 9 11 7 14 -15 14 -16 0 -25 -4 -21
-10 3 -6 -1 -13 -9 -16 -9 -3 -14 -10 -11 -14 6 -9 -25 -23 -33 -15 -3 3 0 5
6 5 7 0 12 5 12 12 0 6 -3 8 -7 5 -3 -4 -12 -2 -20 4 -9 9 -13 8 -13 0 0 -6
-5 -11 -11 -11 -5 0 -7 4 -4 10 4 6 -7 8 -27 4 -18 -3 -29 -2 -23 3 6 4 10 15
10 23 0 11 14 15 54 16 37 1 57 7 63 18 5 9 16 13 26 10 11 -4 13 -3 5 3 -14
10 -5 27 17 36 8 3 -3 6 -25 6 l-39 1 38 20 c32 16 43 17 60 7 11 -6 24 -10
29 -9 14 4 7 -10 -15 -30 -13 -11 -17 -17 -10 -13 7 4 12 0 12 -9 0 -10 -6
-13 -17 -9 -10 4 -14 2 -9 -5 9 -15 45 -11 39 5 -4 9 0 11 12 6 16 -5 17 -2
12 25 -6 31 6 45 16 20 4 -9 6 -8 6 2 1 12 16 15 74 15 67 0 72 -2 75 -22 2
-14 -2 -23 -10 -23 -7 0 -19 -9 -26 -20 -18 -30 7 -26 37 6 16 17 31 24 45 20
11 -3 27 0 35 7 14 11 14 10 2 -5 -12 -16 -11 -18 3 -18 9 0 16 8 17 18 0 13
2 12 9 -5 6 -16 18 -23 35 -23 15 0 24 4 21 9 -3 5 -14 7 -24 5 -21 -6 -49 54
-29 61 13 5 63 13 87 14 18 1 -14 26 -45 34 -11 3 12 3 50 0 39 -3 73 -7 77
-9 3 -3 3 -17 -2 -32 -4 -16 -4 -36 1 -45 6 -10 5 -18 -1 -22 -6 -4 -9 -3 -8
2 2 4 -1 9 -7 11 -5 1 -11 -7 -11 -18 -1 -11 -4 -23 -7 -26 -2 -3 6 -16 20
-30 27 -27 27 -46 0 -50 -9 -1 -15 1 -13 4 2 4 -7 21 -20 37 -14 17 -22 23
-19 14 4 -10 2 -20 -4 -24 -7 -4 -3 -16 10 -34 l21 -29 40 23 c23 13 47 21 55
18 9 -3 11 0 7 10 -3 8 -1 18 5 22 18 10 13 35 -7 35 -10 0 -27 7 -38 15 -17
13 -17 14 -1 15 16 0 15 2 -2 19 -11 11 -17 28 -15 38 7 26 58 47 81 34 16 -9
15 -10 -8 -11 -33 0 -46 -26 -18 -35 10 -4 17 -11 14 -16 -9 -13 17 -36 37
-33 9 1 19 -5 22 -13 4 -9 11 -11 18 -6 7 4 29 8 48 8 19 0 34 5 33 10 -1 6
10 11 23 11 25 2 56 32 48 46 -7 11 -44 -15 -44 -31 0 -8 -3 -12 -6 -8 -4 3
-3 14 1 24 5 10 9 25 11 33 5 24 27 60 36 60 5 0 8 -10 6 -22 -2 -13 -9 -22
-16 -21 -18 4 -14 -5 8 -17 16 -9 19 -8 14 7 -5 15 -3 15 12 -2 l17 -20 -8 20
c-4 11 -10 30 -12 42 -3 13 -9 23 -14 23 -5 0 -9 24 -9 54 0 40 4 55 16 60 9
3 20 4 25 1 5 -4 6 1 3 9 -3 9 -15 16 -25 16 -15 0 -19 7 -19 35 0 39 36 85
65 85 9 0 13 4 10 10 -3 5 0 7 7 5 21 -8 48 58 48 115 l0 50 38 0 c20 0 60 -3
89 -6 42 -5 50 -10 45 -23 -5 -14 -3 -14 10 -3 11 9 29 11 52 7 l36 -7 -6 -72
c-3 -39 -10 -87 -15 -106 -5 -19 -9 -56 -9 -81 0 -32 -6 -51 -19 -63 -11 -10
-22 -13 -25 -8 -3 6 1 12 9 16 8 3 15 12 15 20 0 10 -6 13 -16 9 -14 -5 -16
-1 -12 20 4 19 1 27 -9 27 -13 0 -13 -25 2 -62 5 -12 3 -18 -5 -18 -7 0 -3 -8
9 -19 l21 -19 -55 -22 c-48 -19 -55 -25 -49 -43 6 -19 5 -20 -10 -5 -19 20
-49 14 -93 -20 -19 -14 -37 -21 -45 -16 -9 5 -9 2 1 -10 13 -15 13 -19 0 -27
-10 -6 -10 -9 -1 -9 20 0 27 4 24 14 -2 5 4 4 12 -3 9 -8 29 -11 48 -8 18 3
42 7 53 9 11 2 23 8 27 13 5 6 8 5 8 -2 0 -7 9 -13 20 -13 11 0 20 -7 20 -15
0 -8 7 -15 16 -15 13 0 15 -7 9 -41 -7 -39 -6 -42 13 -37 12 3 22 2 24 -2 13
-33 212 -170 226 -155 3 2 13 0 24 -6 11 -6 37 -8 58 -4 48 8 64 43 49 100 -6
20 -9 39 -7 41 2 2 30 -14 61 -36 57 -38 71 -41 151 -27 6 1 20 -18 32 -42 15
-31 24 -40 29 -31 7 11 10 9 16 -6 6 -15 8 -15 8 -3 1 9 -6 22 -14 29 -11 9
-12 15 -2 25 7 7 15 11 20 8 4 -2 7 2 7 9 1 8 7 5 16 -7 16 -19 16 -19 12 7
-4 23 -1 28 24 34 39 8 48 -4 33 -40 l-12 -29 -5 27 c-3 14 -1 26 5 26 6 0 8
2 5 5 -3 3 -12 3 -20 0 -13 -5 -13 -11 0 -49 14 -38 19 -43 43 -40 24 3 28 -1
33 -31 6 -29 11 -35 31 -35 14 0 25 5 25 12 0 9 3 9 12 0 10 -10 128 -18 128
-9 0 1 -9 20 -20 42 -11 22 -20 45 -20 53 0 7 -5 10 -11 6 -7 -4 -10 -1 -6 7
2 8 -6 33 -19 55 -13 23 -20 45 -16 49 4 5 1 5 -5 1 -7 -4 -13 -2 -13 4 0 6
10 14 23 19 24 9 38 4 20 -7 -8 -5 -7 -13 3 -27 13 -17 16 -18 24 -5 6 9 10
10 10 3 0 -6 -4 -14 -9 -17 -5 -4 -1 -24 10 -46 10 -21 19 -43 19 -49 0 -5 10
-28 22 -50 l22 -41 573 0 573 0 0 405 c0 394 -1 405 -19 405 -11 0 -23 5 -26
10 -4 7 2 9 19 4 33 -8 34 9 1 26 -14 7 -25 19 -25 27 0 15 16 17 25 3 10 -16
22 -12 20 8 -2 25 -15 43 -26 36 -7 -4 -9 7 -7 27 2 26 7 33 21 31 16 -3 17
26 17 497 0 315 -4 502 -10 506 -5 3 -18 1 -28 -4 -13 -7 -23 -6 -31 2 -9 9
-14 9 -20 -2 -5 -7 -14 -10 -20 -7 -24 15 -8 25 47 28 l57 3 2 283 c1 170 -2
282 -8 282 -5 0 -9 7 -9 16 0 8 5 12 10 9 6 -4 10 34 10 106 0 91 -3 116 -17
131 -9 10 -11 18 -5 18 6 0 13 -6 15 -12 3 -7 6 22 6 65 1 45 -3 77 -9 77 -5
0 -10 -6 -10 -14 0 -22 -13 -26 -35 -10 -14 10 -18 24 -17 49 3 46 -4 58 -29
45 -10 -6 -19 -8 -19 -6 0 6 60 40 75 42 6 1 18 2 28 3 15 1 17 16 17 161 l0
160 -472 0 -473 0 -22 -33 c-207 -310 -462 -711 -457 -719 4 -6 2 -8 -3 -5
-10 7 -28 -20 -25 -35 1 -5 -23 -8 -53 -8 -30 0 -55 2 -55 4 0 2 92 175 205
385 113 210 208 388 212 396 4 13 -188 15 -1532 15 l-1538 0 259 -188 c315
-228 847 -611 928 -666 l58 -41 -32 -3 c-18 -2 -39 3 -48 11 -22 19 -445 309
-667 457 -93 62 -273 185 -398 272 l-228 158 -515 0 -514 0 0 -510z m3705 289
c0 -7 -8 -15 -17 -17 -18 -3 -25 18 -11 32 10 10 28 1 28 -15z m1530 -158 c-6
-5 -76 -51 -157 -103 -81 -53 -145 -98 -141 -101 5 -6 -55 -47 -69 -47 -19 0
-5 19 22 30 16 7 27 16 25 20 -3 5 3 11 13 14 23 8 78 48 83 61 2 6 11 10 19
10 8 0 15 5 15 10 0 19 16 35 36 35 11 0 17 4 14 10 -3 6 1 7 9 4 9 -3 16 -1
16 5 0 6 7 8 17 4 12 -5 14 -3 8 7 -5 8 -4 11 2 7 5 -3 27 5 49 18 41 25 55
31 39 16z m-3115 -42 c0 -5 -7 -9 -15 -9 -15 0 -20 12 -9 23 8 8 24 -1 24 -14z
m3205 -78 c3 -5 1 -12 -5 -16 -5 -3 -10 1 -10 9 0 18 6 21 15 7z m2 -93 c-3
-8 -6 -5 -6 6 -1 11 2 17 5 13 3 -3 4 -12 1 -19z m10 -80 c-3 -8 -6 -5 -6 6
-1 11 2 17 5 13 3 -3 4 -12 1 -19z m-737 -16 c0 -11 -8 -18 -20 -19 -21 -2
-274 -183 -266 -191 3 -2 47 26 97 63 51 38 99 68 105 68 7 0 11 4 9 8 -4 5
37 39 47 39 2 0 4 -20 5 -45 1 -42 -1 -45 -43 -72 -37 -24 -44 -32 -39 -53 9
-46 64 -444 76 -556 7 -62 9 -120 5 -129 -6 -17 -7 -17 -26 0 -16 14 -38 19
-99 19 l-78 1 -12 57 c-11 54 -30 76 -53 62 -7 -5 -9 80 -6 264 4 241 3 269
-11 264 -25 -8 -6 8 129 109 69 51 130 98 135 105 8 10 20 16 43 23 1 1 2 -7
2 -17z m666 -7 c12 25 13 26 10 6 -3 -13 0 -33 5 -43 6 -10 12 -31 15 -46 2
-15 11 -58 19 -97 17 -83 19 -118 5 -110 -5 3 -10 22 -10 41 0 19 -5 34 -10
34 -13 0 -3 -75 15 -113 9 -17 9 -25 3 -21 -8 5 -9 1 -5 -10 4 -10 7 -22 7
-27 0 -6 3 -8 8 -6 4 3 7 -14 8 -37 0 -23 4 -54 8 -69 5 -21 3 -25 -9 -20 -9
3 -14 11 -11 18 3 8 -2 16 -9 19 -12 4 -14 -4 -10 -42 3 -38 3 -41 -4 -17 -13
44 -13 114 -1 95 5 -8 10 -10 10 -4 0 6 -7 17 -15 24 -10 8 -14 31 -14 74 0
33 -1 72 -4 86 -23 117 -37 212 -35 250 1 34 2 38 5 15 l5 -30 14 30z m-1644
-18 c4 -6 5 -14 2 -18 -2 -4 1 -9 7 -11 7 -2 1 -15 -15 -31 -30 -31 -32 -31
-73 -17 -24 9 -30 16 -27 36 4 36 42 67 74 59 13 -4 28 -12 32 -18z m1725 -39
c-3 -8 -6 -5 -6 6 -1 11 2 17 5 13 3 -3 4 -12 1 -19z m-103 -174 c2 -39 6 -76
10 -83 4 -6 2 -11 -3 -11 -12 0 -14 6 -15 75 -1 28 -5 73 -9 100 -6 41 -5 45
4 20 5 -16 11 -62 13 -101z m-4019 58 c11 -2 22 -7 25 -11 3 -4 21 -8 40 -9
19 -2 38 -8 42 -15 4 -7 8 -9 8 -5 0 10 60 -12 60 -23 0 -5 18 -9 40 -9 23 0
52 -7 65 -16 13 -9 28 -13 34 -10 6 4 11 -30 14 -86 5 -121 3 -856 -3 -861 -6
-6 -353 -67 -379 -67 -18 0 -19 14 -20 328 0 180 3 379 8 442 19 236 36 383
41 364 3 -10 14 -21 25 -22z m3899 -38 c3 -8 2 -12 -4 -9 -6 3 -10 10 -10 16
0 14 7 11 14 -7z m-394 -89 c2 25 3 26 7 7 2 -12 8 -20 13 -17 4 2 7 -30 6
-73 0 -42 3 -108 8 -147 5 -38 6 -68 3 -64 -4 3 -12 50 -18 105 -6 54 -15 101
-19 104 -10 7 -30 104 -29 138 1 17 6 8 14 -28 10 -45 13 -50 15 -25z m477 28
c-3 -10 -5 -4 -5 12 0 17 2 24 5 18 2 -7 2 -21 0 -30z m-3556 -28 c5 4 9 -5 9
-19 0 -17 6 -26 15 -26 8 0 23 -9 32 -20 10 -11 21 -20 25 -20 15 0 47 -39 54
-64 3 -14 15 -27 29 -30 13 -3 25 -14 28 -24 3 -14 6 -13 15 8 8 19 11 -64 11
-325 l1 -351 -104 -18 c-57 -9 -113 -20 -123 -22 -17 -5 -18 7 -22 216 -3 214
9 758 17 712 2 -12 8 -20 13 -17z m3126 -37 c-2 -13 -4 -3 -4 22 0 25 2 35 4
23 2 -13 2 -33 0 -45z m40 15 c-3 -10 -5 -2 -5 17 0 19 2 27 5 18 2 -10 2 -26
0 -35z m-117 -6 c0 -7 -4 -6 -11 3 -8 11 -9 8 -5 -15 5 -22 4 -26 -4 -15 -8
12 -10 10 -11 -10 -1 -14 -3 -18 -6 -9 -6 22 15 71 27 64 5 -3 10 -12 10 -18z
m7 -49 c-3 -7 -5 -2 -5 12 0 14 2 19 5 13 2 -7 2 -19 0 -25z m-77 -3 c0 -14
-2 -25 -4 -25 -2 0 -6 11 -8 25 -3 14 -1 25 3 25 5 0 9 -11 9 -25z m137 -32
c-3 -10 -5 -2 -5 17 0 19 2 27 5 18 2 -10 2 -26 0 -35z m27 -3 c3 -28 2 -40
-3 -31 -8 12 -10 12 -14 0 -2 -8 -3 -5 -1 6 2 11 4 33 4 49 0 41 7 29 14 -24z
m476 -5 c0 -5 -5 -3 -10 5 -5 8 -10 20 -10 25 0 6 5 3 10 -5 5 -8 10 -19 10
-25z m-583 -17 c-3 -8 -6 -5 -6 6 -1 11 2 17 5 13 3 -3 4 -12 1 -19z m36 7
c-3 -9 -8 -14 -10 -11 -3 3 -2 9 2 15 9 16 15 13 8 -4z m114 -37 c-3 -8 -6 -5
-6 6 -1 11 2 17 5 13 3 -3 4 -12 1 -19z m310 -40 c-2 -13 -4 -3 -4 22 0 25 2
35 4 23 2 -13 2 -33 0 -45z m130 40 c-3 -8 -6 -5 -6 6 -1 11 2 17 5 13 3 -3 4
-12 1 -19z m-642 2 c-3 -5 -12 -10 -18 -10 -7 0 -6 4 3 10 19 12 23 12 15 0z
m62 -12 c-3 -8 -6 -5 -6 6 -1 11 2 17 5 13 3 -3 4 -12 1 -19z m28 -18 c-3 -6
-2 -10 3 -10 14 0 24 -122 11 -134 -8 -8 -9 -5 -4 13 5 16 4 21 -4 17 -6 -4
-11 -6 -11 -4 -1 2 -3 39 -6 83 -4 61 -2 76 6 62 6 -9 8 -22 5 -27z m-2774
-65 c5 4 9 0 9 -7 0 -9 3 -9 10 2 7 11 10 11 10 2 0 -8 5 -10 12 -6 8 5 9 2 5
-9 -3 -10 -2 -17 3 -17 5 0 12 -9 15 -20 3 -11 11 -20 17 -20 6 0 26 -17 44
-37 19 -21 46 -50 60 -66 15 -15 19 -24 10 -21 -20 8 -76 -17 -76 -33 0 -12
-19 -17 -47 -14 -7 1 -13 -5 -13 -14 0 -10 -7 -15 -17 -13 -13 2 -19 -5 -21
-22 -2 -14 -7 -29 -12 -35 -8 -12 -12 -85 -4 -85 3 0 14 10 23 22 17 21 18 20
20 -36 1 -54 -16 -96 -33 -78 -4 3 -4 -1 0 -11 7 -20 16 -21 33 -4 10 10 11 8
5 -6 -3 -10 -14 -22 -24 -27 -10 -5 -21 -23 -25 -40 -19 -89 -25 -16 -23 317
1 197 3 339 5 315 2 -23 8 -40 14 -37z m2689 65 c0 -5 -4 -10 -10 -10 -5 0
-10 5 -10 10 0 6 5 10 10 10 6 0 10 -4 10 -10z m-826 -25 c-4 -8 -1 -15 5 -15
6 0 11 5 11 12 0 6 3 8 6 5 4 -4 1 -14 -6 -22 -12 -15 -14 -15 -22 -1 -5 9 -6
21 -3 26 9 15 15 12 9 -5z m-244 -5 c0 -5 -10 -10 -22 -9 -22 0 -22 1 -3 9 11
5 21 9 23 9 1 1 2 -3 2 -9z m110 -2 c0 -5 -16 -8 -35 -8 -19 0 -35 3 -35 8 0
4 16 7 35 7 19 0 35 -3 35 -7z m110 1 c0 -5 -11 -9 -25 -9 -14 0 -25 4 -25 9
0 5 11 9 25 9 14 0 25 -4 25 -9z m900 -19 c4 7 7 -8 6 -34 -1 -46 -16 -67 -16
-22 0 13 -2 36 -4 52 -2 16 -1 20 1 10 4 -14 7 -16 13 -6z m97 -2 c-3 -7 -5
-2 -5 12 0 14 2 19 5 13 2 -7 2 -19 0 -25z m66 -19 c-8 -28 -12 -23 -11 12 1
17 4 25 8 18 4 -6 5 -20 3 -30z m374 -61 c-3 -8 -6 -5 -6 6 -1 11 2 17 5 13 3
-3 4 -12 1 -19z m-1401 -8 c0 -11 -6 -20 -13 -20 -15 0 -15 2 -7 24 9 22 20
20 20 -4z m-2 -102 c-1 -13 -3 -30 -3 -38 -1 -12 -3 -12 -10 -2 -9 15 -3 62 8
62 4 0 7 -10 5 -22z m1413 7 c-2 -5 -15 -10 -28 -10 -13 0 -29 -3 -36 -8 -6
-4 -14 -3 -18 3 -3 6 0 12 7 14 48 15 80 16 75 1z m-2077 -130 l0 -135 -177 0
c-98 0 -235 3 -305 7 l-128 6 0 123 0 123 68 4 c37 2 174 4 305 5 l237 2 0
-135z m938 83 c1 -24 -3 -50 -8 -58 -7 -11 -10 -1 -10 36 0 42 5 64 15 64 1 0
2 -19 3 -42z m947 23 c-3 -6 -11 -8 -17 -5 -6 4 -5 9 3 15 16 10 23 4 14 -10z
m45 9 c0 -5 -4 -10 -10 -10 -5 0 -10 5 -10 10 0 6 5 10 10 10 6 0 10 -4 10
-10z m42 -2 c-9 -9 -15 -9 -24 0 -9 9 -7 12 12 12 19 0 21 -3 12 -12z m-162
-8 c0 -5 -5 -10 -11 -10 -5 0 -7 5 -4 10 3 6 8 10 11 10 2 0 4 -4 4 -10z m40
0 c0 -5 -4 -10 -10 -10 -5 0 -10 5 -10 10 0 6 5 10 10 10 6 0 10 -4 10 -10z
m-140 -10 c0 -5 -4 -10 -10 -10 -5 0 -10 5 -10 10 0 6 5 10 10 10 6 0 10 -4
10 -10z m30 0 c0 -5 -4 -10 -10 -10 -5 0 -10 5 -10 10 0 6 5 10 10 10 6 0 10
-4 10 -10z m40 6 c0 -11 -19 -15 -25 -6 -3 5 1 10 9 10 9 0 16 -2 16 -4z
m-2815 -16 c3 -5 1 -10 -4 -10 -6 0 -11 5 -11 10 0 6 2 10 4 10 3 0 8 -4 11
-10z m2655 0 c0 -5 -4 -10 -10 -10 -5 0 -10 5 -10 10 0 6 5 10 10 10 6 0 10
-4 10 -10z m56 3 c-10 -10 -46 -11 -46 -1 0 4 12 8 27 8 14 0 23 -3 19 -7z
m-87 -7 c-10 -11 -69 -16 -69 -6 0 5 17 10 37 10 20 0 34 -2 32 -4z m-919 -20
c0 -3 -4 -8 -10 -11 -5 -3 -10 -1 -10 4 0 6 5 11 10 11 6 0 10 -2 10 -4z
m-1725 -46 c-11 -5 -27 -9 -35 -9 -9 0 -8 4 5 9 11 5 27 9 35 9 9 0 8 -4 -5
-9z m64 -26 c-6 -8 -15 -14 -20 -14 -14 0 -11 28 4 33 20 7 29 -4 16 -19z
m1654 6 c3 -11 1 -20 -4 -20 -5 0 -9 9 -9 20 0 11 2 20 4 20 2 0 6 -9 9 -20z
m1212 -12 c3 -3 -19 -9 -50 -13 -64 -8 -172 3 -141 15 23 8 183 7 191 -2z
m-2905 -6 c0 -4 -9 -13 -20 -20 -25 -15 -18 -32 13 -33 22 0 22 0 -1 -10 -25
-10 -58 10 -44 27 4 5 0 3 -8 -3 -20 -18 -27 -16 -26 9 1 16 9 22 31 25 16 3
32 6 34 9 7 7 21 5 21 -4z m2627 -104 c-2 -18 -4 -6 -4 27 0 33 2 48 4 33 2
-15 2 -42 0 -60z m-934 42 c-3 -11 -7 -20 -9 -20 -2 0 -4 9 -4 20 0 11 4 20 9
20 5 0 7 -9 4 -20z m-1449 -175 c-2 -140 -1 -155 17 -171 12 -11 19 -30 19
-54 0 -30 -5 -39 -25 -48 -17 -8 -25 -8 -25 -1 0 6 -4 7 -10 4 -5 -3 -32 -3
-60 1 -45 6 -54 11 -82 50 -20 28 -41 45 -61 50 -25 5 -28 8 -14 16 10 5 21 7
26 4 5 -3 29 -2 53 3 25 4 68 5 96 1 l52 -6 0 75 c-1 65 -2 74 -14 59 -14 -20
-41 -24 -51 -8 -3 6 1 7 10 4 24 -9 55 25 55 60 0 23 -3 27 -12 18 -14 -14
-58 -16 -58 -2 0 5 6 7 14 4 19 -7 58 32 54 54 -2 9 -14 23 -28 30 l-25 14 28
-6 c21 -5 27 -3 27 11 0 14 2 15 9 5 4 -7 7 -82 5 -167z m1516 156 c0 -16 5
-18 39 -14 23 3 41 1 46 -6 5 -8 -1 -10 -19 -5 -31 7 -56 -10 -56 -39 0 -26
28 -57 51 -57 25 0 49 38 40 63 -10 28 -2 67 15 67 11 0 13 -29 8 -167 -3 -93
-7 -175 -8 -184 -2 -11 7 -16 36 -18 22 -1 52 -10 66 -19 l26 -17 -34 -5 c-25
-4 -42 0 -59 12 -13 10 -30 18 -37 18 -11 0 -14 27 -14 131 0 116 -2 130 -15
119 -9 -8 -29 -10 -50 -7 l-36 6 3 -147 3 -146 43 -9 c28 -5 42 -13 42 -24 0
-12 -3 -13 -14 -4 -7 6 -27 11 -43 9 -16 -1 -34 1 -41 6 -15 9 -18 456 -2 456
6 0 10 -9 10 -19z m-1619 -13 c11 -21 11 -22 -4 -9 -10 7 -17 17 -17 22 0 15
9 10 21 -13z m2016 16 c-3 -3 -12 -4 -19 -1 -8 3 -5 6 6 6 11 1 17 -2 13 -5z
m-2137 -15 c0 -6 -7 -9 -15 -5 -8 3 -15 0 -15 -6 0 -6 -3 -9 -6 -5 -9 9 5 27
22 27 8 0 14 -5 14 -11z m123 -48 c3 -14 1 -18 -9 -14 -8 3 -14 14 -14 25 0
23 16 16 23 -11z m1056 10 c16 -10 6 -31 -15 -31 -8 0 -14 9 -14 20 0 22 7 25
29 11z m1043 -8 c20 -18 24 -63 6 -81 -29 -29 -108 1 -108 41 0 48 65 74 102
40z m-927 -13 c-33 -3 -64 -3 -70 0 -15 8 65 16 100 10 22 -4 15 -6 -30 -10z
m509 5 c-4 -8 -10 -12 -15 -9 -14 8 -10 24 6 24 9 0 12 -6 9 -15z m-9 -33 c-3
-3 -11 0 -18 7 -9 10 -8 11 6 5 10 -3 15 -9 12 -12z m-122 -12 c-3 -11 -7 -20
-9 -20 -2 0 -4 9 -4 20 0 11 4 20 9 20 5 0 7 -9 4 -20z m-1553 -43 c0 -10 -4
-16 -9 -13 -5 3 -8 17 -8 32 0 18 2 22 8 13 5 -8 9 -22 9 -32z m1556 -4 c0
-10 -5 -21 -11 -25 -6 -5 -5 -8 3 -8 7 0 10 -4 7 -10 -17 -27 -24 -5 -16 53 2
16 19 6 17 -10z m96 5 c-33 -33 2 -73 42 -48 19 12 20 12 7 -3 -24 -30 -71
-15 -71 23 0 15 18 40 29 40 3 0 0 -5 -7 -12z m-1652 -67 c0 -21 -13 -4 -17
22 -2 17 -1 19 7 7 5 -8 10 -21 10 -29z m0 -42 c0 -11 -4 -18 -10 -14 -5 3 -7
12 -3 20 7 21 13 19 13 -6z m2016 1 c17 0 22 -4 18 -15 -8 -20 -48 -19 -69 1
-10 10 -27 15 -45 12 -16 -3 -26 0 -23 5 3 5 26 7 51 3 25 -3 55 -6 68 -6z
m513 -46 c53 -9 103 -21 111 -26 12 -8 12 -9 -2 -4 -10 3 -20 1 -24 -5 -4 -7
-10 -6 -19 1 -7 6 -45 12 -85 14 -49 2 -76 8 -88 20 -21 20 -16 20 107 0z
m-834 -4 c3 -6 -1 -7 -9 -4 -18 7 -21 14 -7 14 6 0 13 -4 16 -10z m241 -16 c8
-1 14 2 14 7 0 18 19 9 26 -13 l6 -21 12 22 c7 12 15 19 18 16 12 -12 52 -14
59 -3 13 21 21 1 14 -36 -7 -33 -9 -35 -39 -31 -17 2 -61 7 -98 11 -71 7 -79
15 -62 58 5 13 9 14 21 4 8 -7 21 -13 29 -14z m-2316 -16 c0 -6 7 -16 15 -22
18 -14 105 -174 105 -194 0 -9 -3 -12 -7 -9 -3 4 -13 1 -21 -6 -13 -11 -14 -9
-2 13 9 17 10 25 1 28 -6 2 -9 8 -5 13 3 5 2 9 -3 8 -21 -4 -31 3 -42 28 -12
25 -14 26 -25 11 -7 -10 -16 -15 -19 -11 -4 3 -1 -6 6 -20 8 -17 15 -22 23
-16 8 6 13 3 17 -11 3 -11 10 -20 17 -20 6 0 8 5 4 12 -4 7 -3 8 4 4 23 -14
-29 -80 -55 -71 -6 2 -14 -2 -16 -9 -4 -10 1 -12 16 -10 21 4 21 4 -1 -8 -29
-14 -51 -3 -70 35 -7 15 -18 27 -24 27 -6 0 -5 7 3 17 12 15 12 16 -3 10 -10
-3 -22 1 -30 10 -11 15 -11 16 5 10 15 -6 18 -3 15 16 -2 12 -9 21 -15 20 -16
-3 -73 64 -73 86 0 13 13 21 53 30 28 6 65 20 81 31 30 19 46 18 46 -2z m2041
-8 c9 12 10 11 5 -4 -5 -15 -2 -17 14 -13 11 3 18 1 14 -4 -16 -26 -64 0 -63
36 0 18 1 17 10 -5 8 -20 12 -22 20 -10z m-1189 -61 c-6 -14 -5 -35 1 -52 11
-33 5 -43 -14 -25 -8 7 -27 13 -43 13 -33 -1 -41 12 -27 48 9 22 17 27 46 27
20 0 35 5 35 12 0 6 2 9 5 6 3 -3 1 -16 -3 -29z m1568 11 c13 -9 13 -10 0 -10
-8 0 -22 5 -30 10 -13 9 -13 10 0 10 8 0 22 -5 30 -10z m428 -11 c34 -11 60
-24 58 -28 -3 -4 -48 -24 -100 -46 l-96 -38 -50 23 c-28 13 -50 26 -50 30 0 5
153 76 171 79 3 1 33 -8 67 -20z m330 -40 c-3 -42 -3 -43 -16 -20 -10 17 -11
21 -2 16 9 -6 11 2 8 29 -2 20 0 32 5 27 4 -4 7 -28 5 -52z m-3473 19 c4 -13
8 -29 10 -36 2 -8 7 -21 11 -30 21 -51 13 -79 -21 -72 -5 1 -6 -2 -2 -7 5 -4
18 -8 29 -8 11 0 24 -7 28 -15 4 -8 12 -25 19 -38 6 -13 9 -27 6 -33 -4 -5 -1
-8 6 -7 6 2 13 -2 16 -9 3 -7 -3 -9 -17 -6 -15 4 -20 11 -17 24 3 11 1 17 -4
13 -5 -3 -10 -22 -10 -42 -1 -20 -3 -29 -6 -19 -6 22 -23 12 -23 -13 0 -26
-45 -54 -84 -53 -26 2 -28 0 -11 -7 11 -5 15 -9 8 -9 -6 -1 -18 -4 -26 -7 -19
-7 -32 27 -15 38 7 4 18 6 25 4 6 -3 14 2 17 10 5 12 1 12 -28 0 -19 -8 -37
-12 -40 -8 -12 11 -6 32 9 32 8 0 15 5 15 10 0 6 7 10 15 10 8 0 15 5 15 10 0
7 -7 7 -21 0 -27 -15 -70 -5 -63 14 3 8 1 17 -5 21 -6 3 -11 15 -11 26 0 11
-8 39 -19 62 -39 88 -38 91 32 112 34 10 80 26 102 36 52 23 51 23 60 -3z
m2654 -21 c1 -5 -3 -6 -8 -3 -5 4 -11 1 -13 -5 -2 -7 -9 -5 -17 5 -12 14 -12
16 3 10 12 -5 16 0 17 17 0 23 1 23 9 4 5 -11 9 -24 9 -28z m201 13 c17 -9 19
-15 10 -23 -9 -9 -16 -6 -30 11 -10 13 -21 23 -24 22 -25 -1 -36 1 -36 9 0 11
44 0 80 -19z m-170 0 c0 -5 -2 -10 -4 -10 -3 0 -8 5 -11 10 -3 6 -1 10 4 10 6
0 11 -4 11 -10z m-458 -22 c-8 -8 -8 -15 -2 -24 8 -9 -4 -11 -49 -10 -32 0
-57 4 -54 9 2 4 14 7 27 7 12 0 28 6 35 13 11 10 13 9 7 -3 -4 -8 -1 -7 6 3 7
9 19 17 27 17 12 0 12 -3 3 -12z m-1397 -20 c4 -3 9 -35 11 -70 3 -52 2 -58
-6 -32 -14 44 -29 54 -104 66 -36 6 -63 15 -60 19 3 5 0 9 -5 9 -6 0 -11 3
-11 8 0 9 166 10 175 0z m1035 -8 c8 -5 12 -11 9 -14 -3 -3 -14 1 -25 9 -21
16 -8 20 16 5z m460 -78 c36 -21 39 -36 5 -30 -14 3 -25 1 -25 -3 0 -5 -5 -9
-11 -9 -5 0 -7 5 -4 10 3 6 1 10 -4 10 -6 0 -11 19 -10 43 0 36 2 39 9 19 5
-12 23 -30 40 -40z m965 26 c7 -7 2 -8 -15 -3 -14 4 -29 12 -35 17 -7 7 -2 8
15 3 14 -4 30 -12 35 -17z m-2271 -47 c-6 -6 -24 19 -24 34 1 6 7 1 15 -9 8
-11 12 -22 9 -25z m29 19 c3 -11 1 -23 -4 -26 -5 -3 -9 6 -9 20 0 31 6 34 13
6z m875 -16 c-4 -3 -12 5 -18 18 -12 22 -12 22 6 6 10 -10 15 -20 12 -24z
m661 -58 c80 -69 104 -85 137 -89 21 -2 2 -3 -44 -2 -79 2 -84 3 -117 35 -19
18 -32 37 -30 41 3 4 -18 28 -47 53 -52 45 -52 46 -24 46 21 0 52 -21 125 -84z
m-1505 49 c-11 -8 -14 -15 -6 -15 17 0 15 -20 -3 -20 -8 0 -15 5 -15 12 0 14
31 50 38 43 3 -3 -3 -12 -14 -20z m2081 -27 c69 -34 75 -38 42 -34 -21 3 -70
23 -110 46 -91 51 -45 43 68 -12z m-2181 -7 c-5 -6 -33 31 -33 44 -1 6 8 -1
19 -15 10 -14 17 -27 14 -29z m51 20 c3 -5 1 -12 -4 -15 -5 -3 -11 1 -15 9 -6
16 9 21 19 6z m38 -65 c20 -22 34 -25 146 -33 l124 -8 3 -30 c2 -18 -9 -52
-28 -90 -17 -33 -39 -76 -49 -95 l-18 -35 -1 37 0 36 -97 7 c-54 3 -111 9
-126 12 -23 4 -28 2 -27 -14 5 -48 -1 -83 -14 -83 -15 0 -32 71 -22 89 8 12
-18 21 -67 22 -23 0 -85 6 -136 12 l-95 12 78 59 c42 33 81 67 86 75 7 13 25
16 84 14 69 -1 76 0 76 18 0 29 55 26 83 -5z m-1403 3 c83 -13 120 -35 145
-84 24 -50 27 -144 5 -157 -8 -5 -41 -24 -73 -43 -31 -18 -54 -29 -51 -23 5 8
-9 9 -47 5 -37 -4 -49 -3 -39 3 11 8 8 10 -15 8 -16 -1 -48 0 -70 1 -40 3 -40
3 -10 12 25 7 23 8 -15 4 -52 -4 -132 4 -125 14 2 4 -12 5 -31 3 -20 -3 -34 0
-34 7 0 6 -11 8 -28 5 -15 -3 -72 -1 -126 5 -81 9 -114 9 -189 -4 -99 -18
-162 -39 -153 -54 3 -5 -2 -15 -12 -22 -15 -13 -16 -12 -3 4 14 18 5 22 -23
11 -9 -3 -13 -10 -10 -15 7 -13 -19 -7 -28 6 -4 6 -8 21 -8 35 -1 24 -1 24
-15 6 -22 -29 -18 -6 5 31 31 52 100 113 163 145 67 33 248 83 352 97 100 12
358 13 435 0z m2636 -31 c9 -15 -37 1 -56 18 -13 13 -11 13 18 3 17 -6 35 -16
38 -21z m64 10 c10 -6 6 -7 -15 -3 -16 4 -34 11 -40 17 -12 12 31 1 55 -14z
m1370 -9 c0 -5 -20 -9 -45 -9 -25 0 -45 4 -45 10 0 5 20 9 45 8 25 0 45 -4 45
-9z m-3627 -16 c-22 -17 -30 -16 -36 2 -5 11 1 14 24 12 26 -2 27 -3 12 -14z
m3387 -19 l25 -15 -25 7 c-14 3 -32 10 -40 15 -13 7 -13 8 0 8 8 0 26 -6 40
-15z m-1663 -30 c-3 -3 -12 -4 -19 -1 -8 3 -5 6 6 6 11 1 17 -2 13 -5z m-32
-14 c3 -5 1 -10 -4 -10 -6 0 -11 5 -11 10 0 6 2 10 4 10 3 0 8 -4 11 -10z
m135 -39 c0 -5 -9 -7 -20 -4 -11 3 -20 7 -20 9 0 2 9 4 20 4 11 0 20 -4 20 -9z
m1443 -19 c15 -17 15 -18 -6 -19 -12 0 -16 1 -9 4 6 3 9 9 6 15 -3 5 -15 2
-27 -9 l-22 -18 19 23 c23 26 19 26 39 4z m290 11 c-7 -2 -19 -2 -25 0 -7 3
-2 5 12 5 14 0 19 -2 13 -5z m-238 -23 c3 -5 1 -10 -4 -10 -6 0 -11 5 -11 10
0 6 2 10 4 10 3 0 8 -4 11 -10z m62 4 c-3 -3 -12 -4 -19 -1 -8 3 -5 6 6 6 11
1 17 -2 13 -5z m270 0 c-3 -3 -12 -4 -19 -1 -8 3 -5 6 6 6 11 1 17 -2 13 -5z
m-237 -14 c0 -5 -8 -10 -17 -10 -15 0 -16 2 -3 10 19 12 20 12 20 0z m-2240
-120 c-34 -71 -40 -79 -40 -53 0 42 72 179 78 150 2 -8 -15 -51 -38 -97z m797
78 c-3 -7 -5 -2 -5 12 0 14 2 19 5 13 2 -7 2 -19 0 -25z m-3014 -15 c-7 -2
-21 -2 -30 0 -10 3 -4 5 12 5 17 0 24 -2 18 -5z m-60 -10 c-7 -2 -19 -2 -25 0
-7 3 -2 5 12 5 14 0 19 -2 13 -5z m-108 -23 c-38 -11 -71 -17 -73 -15 -6 6 91
34 118 33 14 0 -6 -8 -45 -18z m1635 -20 c-8 -5 -15 -14 -15 -20 0 -5 -3 -10
-7 -10 -4 0 -25 -19 -45 -41 -21 -22 -47 -41 -58 -43 -11 -2 -20 -9 -20 -17 0
-8 -8 -13 -20 -11 -11 2 -17 1 -13 -3 11 -11 -29 -48 -43 -40 -8 5 -10 4 -5
-4 9 -15 -32 -53 -47 -44 -5 3 -7 2 -4 -3 3 -6 -15 -28 -41 -50 -25 -21 -85
-73 -132 -114 -47 -41 -100 -86 -117 -98 -18 -13 -32 -27 -30 -32 1 -4 -1 -7
-4 -7 -4 1 -16 -6 -27 -16 -20 -18 -21 -18 -25 5 -2 14 -5 6 -6 -18 -1 -37 -8
-48 -61 -100 -33 -32 -66 -61 -73 -65 -7 -4 -39 -2 -72 6 -33 7 -115 23 -182
35 -67 13 -120 26 -118 30 2 3 -10 4 -27 2 -23 -4 -29 -2 -23 8 5 9 4 11 -4 6
-16 -11 -311 38 -371 61 -8 3 -35 7 -60 9 -25 2 -52 7 -60 10 -8 4 -28 6 -44
5 -20 -2 -26 1 -21 10 6 9 1 11 -19 7 -18 -4 -26 -1 -26 9 0 7 -7 16 -15 19
-8 4 -14 16 -14 28 1 18 2 18 6 3 3 -10 11 -16 18 -14 7 3 12 -1 11 -10 0 -9
5 -17 12 -19 7 -1 8 0 2 3 -8 3 -8 9 0 18 9 10 7 20 -5 39 -17 25 -13 88 7
112 5 7 4 22 -1 37 -7 17 -6 38 1 63 8 31 7 40 -6 49 -9 7 -13 15 -9 18 3 4 0
14 -7 22 -11 13 -9 22 16 57 16 22 49 55 73 72 l43 31 142 -3 c228 -5 521 -38
607 -69 28 -9 54 -13 65 -8 13 5 15 9 6 12 -6 3 -10 9 -6 14 10 16 23 10 26
-13 3 -23 3 -23 27 5 14 15 34 27 46 27 29 0 85 -20 85 -30 0 -5 13 -11 30
-15 16 -4 40 -19 54 -35 44 -52 46 -196 5 -276 -10 -21 -19 -40 -19 -42 0 -2
21 8 48 22 l47 26 -35 -30 c-19 -16 -41 -30 -47 -30 -7 0 -13 -7 -13 -16 0
-11 11 -6 41 18 56 45 98 83 74 67 -18 -13 -19 -12 -7 3 8 9 19 15 26 12 13
-5 34 13 35 30 0 6 7 11 15 12 8 1 74 50 148 109 268 214 293 233 298 229 2
-3 -2 -9 -10 -14z m270 -14 c0 -8 -19 -18 -44 -25 -65 -16 -72 -14 -46 14 26
28 90 36 90 11z m847 -78 c-3 -8 -6 -5 -6 6 -1 11 2 17 5 13 3 -3 4 -12 1 -19z
m59 -4 c-4 -9 -9 -15 -11 -12 -3 3 -3 13 1 22 4 9 9 15 11 12 3 -3 3 -13 -1
-22z m79 -44 c-8 -13 6 -41 17 -34 6 4 9 1 6 -7 -7 -21 -68 -25 -68 -5 0 9 5
16 11 16 5 0 7 -6 3 -12 -6 -10 -5 -10 8 0 8 6 14 23 12 37 -1 14 2 23 7 19 5
-3 7 -9 4 -14z m-915 -14 c14 -3 85 -13 158 -22 l132 -17 0 -34 c0 -29 -3 -33
-25 -33 -35 0 -569 70 -574 76 -2 2 5 14 17 27 20 21 25 22 144 15 68 -4 134
-9 148 -12z m827 2 c-3 -8 -6 -5 -6 6 -1 11 2 17 5 13 3 -3 4 -12 1 -19z m-33
-28 c-5 -29 -3 -40 6 -40 7 0 10 6 7 14 -3 8 1 20 9 26 11 10 14 10 14 1 0
-22 -20 -51 -35 -51 -8 0 -15 -4 -15 -10 0 -5 -7 -10 -16 -10 -13 0 -14 2 -1
14 8 8 17 33 21 55 3 23 8 41 11 41 3 0 2 -18 -1 -40z m-27 -17 c-3 -10 -5 -2
-5 17 0 19 2 27 5 18 2 -10 2 -26 0 -35z m548 -33 c3 -5 1 -10 -4 -10 -6 0
-11 5 -11 10 0 6 2 10 4 10 3 0 8 -4 11 -10z m22 -22 c-3 -8 -6 -5 -6 6 -1 11
2 17 5 13 3 -3 4 -12 1 -19z m-3687 -40 c-4 -49 -5 -50 -8 -14 -3 34 2 66 10
66 2 0 1 -24 -2 -52z m3891 -51 c-1 -12 -15 -9 -19 4 -3 6 1 10 8 8 6 -3 11
-8 11 -12z m-41 -7 c0 -5 -5 -10 -11 -10 -5 0 -7 5 -4 10 3 6 8 10 11 10 2 0
4 -4 4 -10z m-2092 -24 c-7 -8 -15 -12 -17 -11 -5 6 10 25 20 25 5 0 4 -6 -3
-14z m230 -21 c-16 -24 -24 -30 -26 -19 -2 9 4 24 14 35 28 31 36 22 12 -16z
m-263 14 c11 -17 -1 -21 -15 -4 -8 9 -8 15 -2 15 6 0 14 -5 17 -11z m1968 -6
c-7 -2 -19 -2 -25 0 -7 3 -2 5 12 5 14 0 19 -2 13 -5z m-2009 -15 c-5 -8 -2
-9 9 -5 14 5 15 3 5 -13 -11 -16 -14 -17 -21 -5 -8 14 -2 35 9 35 3 0 2 -5 -2
-12z m2026 -8 c0 -5 -2 -10 -4 -10 -3 0 -8 5 -11 10 -3 6 -1 10 4 10 6 0 11
-4 11 -10z m-776 -9 c3 -5 -1 -11 -9 -14 -9 -4 -12 -1 -8 9 6 16 10 17 17 5z
m-1299 -31 c-3 -5 1 -10 10 -10 12 0 10 -6 -10 -27 -14 -15 -25 -32 -25 -38 0
-5 -8 -1 -16 10 -15 19 -15 19 -12 1 2 -10 -2 -21 -8 -23 -24 -8 -7 35 26 65
37 33 45 38 35 22z m1415 0 c0 -5 -4 -10 -10 -10 -5 0 -10 5 -10 10 0 6 5 10
10 10 6 0 10 -4 10 -10z m-1260 -20 c0 -5 -5 -10 -11 -10 -5 0 -7 5 -4 10 3 6
8 10 11 10 2 0 4 -4 4 -10z m1512 -63 c31 -50 45 -97 29 -97 -11 0 -59 27 -71
40 -3 3 -17 11 -32 19 -16 8 -28 21 -28 28 0 8 -4 12 -9 8 -10 -6 -26 13 -18
21 3 3 20 8 39 11 18 3 35 7 37 9 12 12 29 0 53 -39z m-877 23 c3 -5 1 -10 -4
-10 -6 0 -11 5 -11 10 0 6 2 10 4 10 3 0 8 -4 11 -10z m-735 -50 c-16 -10 -30
-4 -30 13 0 7 4 6 11 -3 8 -12 10 -10 5 9 -5 23 -4 23 12 7 15 -14 15 -18 2
-26z m684 -16 c3 -8 2 -12 -4 -9 -6 3 -10 10 -10 16 0 14 7 11 14 -7z m1530
-9 c3 -8 1 -15 -4 -15 -6 0 -10 7 -10 15 0 8 2 15 4 15 2 0 6 -7 10 -15z m271
-44 c-3 -2 -11 1 -18 7 -8 7 -16 9 -19 6 -3 -3 -5 6 -4 21 l1 26 22 -28 c12
-15 20 -29 18 -32z m-2300 29 c3 -5 2 -10 -4 -10 -5 0 -13 5 -16 10 -3 6 -2
10 4 10 5 0 13 -4 16 -10z m-1595 -25 c-7 -8 -9 -15 -5 -15 4 0 2 -7 -5 -15
-11 -13 -8 -15 16 -16 16 -1 -5 -5 -46 -9 -42 -4 -87 -10 -100 -14 l-25 -6 25
12 c14 7 32 20 41 30 9 10 18 16 20 14 2 -2 20 4 39 14 44 23 56 24 40 5z
m3455 5 c19 -8 19 -9 -2 -9 -12 -1 -25 4 -28 9 -7 12 2 12 30 0z m-1835 -10
c8 -5 11 -10 5 -10 -5 0 -17 5 -25 10 -8 5 -10 10 -5 10 6 0 17 -5 25 -10z
m122 -15 c18 -1 40 3 48 9 13 9 13 9 3 -5 -7 -9 -10 -19 -6 -23 9 -9 -50 1
-97 16 -30 10 -32 12 -15 18 11 4 23 3 27 -3 3 -6 21 -11 40 -12z m-2102 -56
c-20 -53 -30 -71 -30 -51 0 13 38 102 44 102 2 0 -4 -23 -14 -51z m225 41 c-3
-5 -11 -10 -16 -10 -6 0 -7 5 -4 10 3 6 11 10 16 10 6 0 7 -4 4 -10z m3702
-12 c-3 -8 -6 -5 -6 6 -1 11 2 17 5 13 3 -3 4 -12 1 -19z m398 -50 c5 4 4 1 0
-7 -6 -11 -4 -13 8 -8 11 4 14 2 10 -9 -3 -7 -7 -14 -10 -14 -8 0 -42 44 -42
55 0 6 6 2 13 -7 7 -10 17 -14 21 -10z m-279 -15 c-7 -7 -26 7 -26 19 0 6 6 6
15 -2 9 -7 13 -15 11 -17z"/>
<path d="M5055 2940 c-3 -5 -2 -10 4 -10 5 0 13 5 16 10 3 6 2 10 -4 10 -5 0
-13 -4 -16 -10z"/>
<path d="M4504 2584 c-18 -14 -18 -15 4 -4 12 6 22 13 22 15 0 8 -5 6 -26 -11z"/>
<path d="M5292 2340 c0 -14 2 -19 5 -12 2 6 2 18 0 25 -3 6 -5 1 -5 -13z"/>
<path d="M1723 1533 c9 -2 23 -2 30 0 6 3 -1 5 -18 5 -16 0 -22 -2 -12 -5z"/>
<path d="M1653 1523 c9 -2 25 -2 35 0 9 3 1 5 -18 5 -19 0 -27 -2 -17 -5z"/>
<path d="M2629 1894 c-14 -17 2 -19 21 -1 8 6 7 3 -3 -9 -9 -11 -17 -35 -17
-52 0 -29 3 -32 29 -32 16 0 31 4 33 9 2 4 26 5 55 2 28 -4 61 -3 74 1 12 5
30 5 38 2 26 -12 172 -11 168 1 -2 6 -29 9 -68 7 -35 -2 -77 1 -93 7 -20 8
-32 8 -41 1 -9 -7 -32 -8 -71 -1 -34 5 -68 5 -82 0 -32 -12 -41 -11 -17 3 11
7 77 13 155 15 74 1 141 5 148 8 6 2 12 0 12 -5 0 -5 10 -10 23 -10 70 -1 69
-1 57 -15 -7 -9 -8 -15 0 -20 17 -11 25 1 23 37 -1 18 -2 41 -2 51 -1 16 -17
17 -215 17 -173 -1 -217 -4 -227 -16z"/>
<path d="M4327 1677 c-22 -16 -13 -47 14 -47 25 0 36 28 17 46 -11 12 -17 12
-31 1z"/>
<path d="M1854 1373 c9 -10 24 -27 32 -38 l15 -20 -9 20 c-5 11 -7 26 -4 34 3
8 0 11 -6 7 -6 -3 -13 -2 -17 4 -3 5 -11 10 -17 10 -6 0 -4 -8 6 -17z"/>
<path d="M1784 1358 c-4 -7 -4 -10 1 -6 4 4 15 2 24 -5 14 -11 14 -10 2 6 -16
20 -18 21 -27 5z"/>
<path d="M1910 1341 c0 -5 7 -12 16 -15 14 -5 15 -4 4 9 -14 17 -20 19 -20 6z"/>
<path d="M1871 1294 c0 -11 3 -14 6 -6 3 7 2 16 -1 19 -3 4 -6 -2 -5 -13z"/>
<path d="M1844 1266 c-3 -8 -2 -22 3 -31 8 -13 10 -10 10 14 0 34 -5 39 -13
17z"/>
<path d="M1950 1259 c0 -5 5 -7 10 -4 6 3 10 8 10 11 0 2 -4 4 -10 4 -5 0 -10
-5 -10 -11z"/>
<path d="M1860 1170 c-20 -12 -10 -19 14 -10 11 3 15 9 10 13 -6 3 -16 2 -24
-3z"/>
<path d="M1563 1154 c0 -16 13 -19 21 -5 3 5 0 11 -7 14 -8 3 -14 -1 -14 -9z"/>
<path d="M1546 1071 c-12 -5 -15 -10 -9 -14 6 -4 16 0 23 8 14 17 13 17 -14 6z"/>
<path d="M4160 1055 c19 -19 36 -35 39 -35 3 0 -10 16 -29 35 -19 19 -36 35
-39 35 -3 0 10 -16 29 -35z"/>
<path d="M2910 979 c0 -5 5 -7 10 -4 6 3 10 8 10 11 0 2 -4 4 -10 4 -5 0 -10
-5 -10 -11z"/>
<path d="M2896 937 c3 -10 9 -15 12 -12 3 3 0 11 -7 18 -10 9 -11 8 -5 -6z"/>
<path d="M2870 911 c-13 -25 -13 -31 1 -31 5 0 7 5 4 10 -3 6 -2 10 3 10 5 0
9 7 9 15 0 20 -4 19 -17 -4z"/>
<path d="M2049 713 c-13 -16 -12 -17 4 -4 16 13 21 21 13 21 -2 0 -10 -8 -17
-17z"/>
<path d="M143 1100 c0 -36 2 -50 4 -32 2 17 2 47 0 65 -2 17 -4 3 -4 -33z"/>
<path d="M3075 827 c10 -8 26 -12 34 -9 11 4 13 1 7 -14 -6 -15 -5 -17 5 -6
16 15 4 27 -36 36 -28 7 -29 6 -10 -7z"/>
<path d="M143 790 c0 -25 2 -35 4 -22 2 12 2 32 0 45 -2 12 -4 2 -4 -23z"/>
<path d="M3187 787 c-3 -8 -2 -19 3 -26 5 -9 9 -7 13 8 6 23 -8 39 -16 18z"/>
<path d="M3100 772 c0 -5 -10 -14 -22 -21 l-23 -12 23 5 c12 2 22 -1 23 -7 0
-7 4 -3 9 8 12 27 12 35 0 35 -5 0 -10 -4 -10 -8z"/>
<path d="M3134 746 c0 -13 4 -22 9 -19 10 6 9 31 -2 37 -5 3 -8 -5 -7 -18z"/>
<path d="M3100 696 c0 -9 9 -14 20 -13 24 2 26 13 4 21 -22 8 -24 8 -24 -8z"/>
<path d="M3093 663 c9 -2 23 -2 30 0 6 3 -1 5 -18 5 -16 0 -22 -2 -12 -5z"/>
<path d="M3140 655 c0 -8 4 -15 9 -15 5 0 11 7 15 15 3 9 0 15 -9 15 -8 0 -15
-7 -15 -15z"/>
<path d="M3072 511 c-22 -13 13 -22 40 -10 21 8 20 9 -5 4 -19 -4 -26 -2 -22
5 7 12 4 12 -13 1z"/>
<path d="M2968 303 c7 -3 16 -2 19 1 4 3 -2 6 -13 5 -11 0 -14 -3 -6 -6z"/>
<path d="M2344 260 c3 -14 6 -28 6 -31 0 -4 11 -6 25 -5 17 1 25 7 25 19 0 15
-11 20 -36 16 -4 0 -11 5 -16 13 -7 9 -8 5 -4 -12z"/>
<path d="M2182 257 c-8 -9 -6 -16 7 -24 18 -12 31 -8 31 8 0 5 -7 6 -15 3 -11
-5 -13 -2 -9 10 7 19 0 21 -14 3z"/>
<path d="M3090 255 c-8 -9 -8 -15 -2 -15 12 0 26 19 19 26 -2 2 -10 -2 -17
-11z"/>
<path d="M2655 230 c-3 -6 1 -7 9 -4 18 7 21 14 7 14 -6 0 -13 -4 -16 -10z"/>
<path d="M1930 219 c0 -5 5 -7 10 -4 6 3 10 8 10 11 0 2 -4 4 -10 4 -5 0 -10
-5 -10 -11z"/>
<path d="M2440 219 c0 -5 5 -7 10 -4 6 3 10 8 10 11 0 2 -4 4 -10 4 -5 0 -10
-5 -10 -11z"/>
<path d="M2151 204 c0 -11 3 -14 6 -6 3 7 2 16 -1 19 -3 4 -6 -2 -5 -13z"/>
<path d="M2223 213 c-15 -5 -17 -23 -4 -23 5 0 11 7 15 15 3 8 4 15 3 14 -1 0
-8 -3 -14 -6z"/>
<path d="M2410 189 c31 -33 40 -61 24 -76 -22 -22 -35 -16 -24 13 7 17 6 32
-1 46 -10 18 -13 19 -26 5 -19 -18 -9 -38 15 -30 9 3 14 3 11 -1 -4 -4 -17 -9
-29 -11 -27 -5 -47 -22 -37 -31 12 -13 99 -17 106 -5 5 7 19 2 43 -14 34 -23
37 -23 50 -7 11 15 11 16 -3 5 -16 -13 -29 -8 -29 9 0 5 6 6 13 2 7 -4 9 -3 4
2 -9 9 -13 10 -41 13 -15 1 -16 17 -3 37 10 18 -24 50 -62 59 l-34 7 23 -23z
m64 -27 c3 -5 -1 -9 -8 -9 -7 0 -19 9 -25 19 -11 17 -10 18 8 9 11 -6 22 -15
25 -19z"/>
<path d="M2716 137 c3 -10 9 -15 12 -12 3 3 0 11 -7 18 -10 9 -11 8 -5 -6z"/>
<path d="M3595 140 c-3 -5 -1 -10 4 -10 6 0 11 5 11 10 0 6 -2 10 -4 10 -3 0
-8 -4 -11 -10z"/>
<path d="M2500 125 c0 -9 6 -12 15 -9 8 4 12 10 9 15 -8 14 -24 10 -24 -6z"/>
<path d="M3901 64 c0 -11 3 -14 6 -6 3 7 2 16 -1 19 -3 4 -6 -2 -5 -13z"/>
<path d="M2610 56 c0 -2 7 -7 16 -10 8 -3 12 -2 9 4 -6 10 -25 14 -25 6z"/>
<path d="M2275 21 c-3 -5 -1 -12 5 -16 5 -3 10 1 10 9 0 18 -6 21 -15 7z"/>
<path d="M3851 14 c0 -11 3 -14 6 -6 3 7 2 16 -1 19 -3 4 -6 -2 -5 -13z"/>
</g>
</svg>
